<mxfile host="app.diagrams.net" modified="2023-09-04T11:20:26.923Z" agent="Mozilla/5.0 (Macintosh; Intel Mac OS X 10_15_7) AppleWebKit/537.36 (KHTML, like Gecko) Chrome/116.0.0.0 Safari/537.36" version="21.7.2" etag="u2NnQgRtANWQYb9i2bOB" type="github">
  <diagram name="Page-1" id="Ii_gCXgE74CYZlKFnbpI">
    <mxGraphModel>
      <root>
        <mxCell id="0" />
        <mxCell id="1" parent="0" />
      </root>
    </mxGraphModel>
  </diagram>
</mxfile>
